<?xml version="1.0" encoding="utf-8"?>
<!-- Generator: Adobe Illustrator 14.0.0, SVG Export Plug-In . SVG Version: 6.00 Build 43363)  -->
<!DOCTYPE svg PUBLIC "-//W3C//DTD SVG 1.1//EN" "http://www.w3.org/Graphics/SVG/1.1/DTD/svg11.dtd">
<svg version="1.1" id="_x33_9_px_grid__x28_424_x29_"
	 xmlns="http://www.w3.org/2000/svg" xmlns:xlink="http://www.w3.org/1999/xlink" x="0px" y="0px" width="1920px" height="1080px"
	 viewBox="0 0 1920 1080" enable-background="new 0 0 1920 1080" xml:space="preserve">
<circle fill="#EB008B" stroke="#FFFFFF" stroke-width="0.3" cx="360" cy="54" r="9"/>
<circle fill="#EB008B" stroke="#FFFFFF" stroke-width="0.3" cx="399" cy="54" r="9"/>
<circle fill="#EB008B" stroke="#FFFFFF" stroke-width="0.3" cx="438" cy="54" r="9"/>
<circle fill="#EB008B" stroke="#FFFFFF" stroke-width="0.3" cx="516" cy="54" r="9"/>
<circle fill="#EB008B" stroke="#FFFFFF" stroke-width="0.3" cx="555" cy="54" r="9"/>
<circle fill="#EB008B" stroke="#FFFFFF" stroke-width="0.3" cx="1101" cy="54" r="9"/>
<circle fill="#EB008B" stroke="#FFFFFF" stroke-width="0.3" cx="1179" cy="54" r="9"/>
<circle fill="#EB008B" stroke="#FFFFFF" stroke-width="0.3" cx="1218" cy="54" r="9"/>
<circle fill="#EB008B" stroke="#FFFFFF" stroke-width="0.3" cx="1257" cy="54" r="9"/>
<circle fill="#EB008B" stroke="#FFFFFF" stroke-width="0.3" cx="1296" cy="54" r="9"/>
<circle fill="#EB008B" stroke="#FFFFFF" stroke-width="0.3" cx="1335" cy="54" r="9"/>
<circle fill="#EB008B" stroke="#FFFFFF" stroke-width="0.3" cx="1374" cy="54" r="9"/>
<circle fill="#EB008B" stroke="#FFFFFF" stroke-width="0.3" cx="1413" cy="54" r="9"/>
<circle fill="#EB008B" stroke="#FFFFFF" stroke-width="0.3" cx="1452" cy="54" r="9"/>
<circle fill="#EB008B" stroke="#FFFFFF" stroke-width="0.3" cx="1491" cy="54" r="9"/>
<circle fill="#EB008B" stroke="#FFFFFF" stroke-width="0.3" cx="126" cy="93" r="9"/>
<circle fill="#EB008B" stroke="#FFFFFF" stroke-width="0.3" cx="165" cy="93" r="9"/>
<circle fill="#EB008B" stroke="#FFFFFF" stroke-width="0.3" cx="204" cy="93" r="9"/>
<circle fill="#EB008B" stroke="#FFFFFF" stroke-width="0.3" cx="243" cy="93" r="9"/>
<circle fill="#EB008B" stroke="#FFFFFF" stroke-width="0.3" cx="282" cy="93" r="9"/>
<circle fill="#EB008B" stroke="#FFFFFF" stroke-width="0.3" cx="321" cy="93" r="9"/>
<circle fill="#EB008B" stroke="#FFFFFF" stroke-width="0.3" cx="360" cy="93" r="9"/>
<circle fill="#EB008B" stroke="#FFFFFF" stroke-width="0.3" cx="399" cy="93" r="9"/>
<circle fill="#EB008B" stroke="#FFFFFF" stroke-width="0.3" cx="438" cy="93" r="9"/>
<circle fill="#EB008B" stroke="#FFFFFF" stroke-width="0.3" cx="477" cy="93" r="9"/>
<circle fill="#EB008B" stroke="#FFFFFF" stroke-width="0.3" cx="516" cy="93" r="9"/>
<circle fill="#EB008B" stroke="#FFFFFF" stroke-width="0.3" cx="555" cy="93" r="9"/>
<circle fill="#EB008B" stroke="#FFFFFF" stroke-width="0.3" cx="594" cy="93" r="9"/>
<circle fill="#EB008B" stroke="#FFFFFF" stroke-width="0.3" cx="789" cy="93" r="9"/>
<circle fill="#EB008B" stroke="#FFFFFF" stroke-width="0.3" cx="945" cy="93" r="9"/>
<circle fill="#EB008B" stroke="#FFFFFF" stroke-width="0.3" cx="984" cy="93" r="9"/>
<circle fill="#EB008B" stroke="#FFFFFF" stroke-width="0.3" cx="1023" cy="93" r="9"/>
<circle fill="#EB008B" stroke="#FFFFFF" stroke-width="0.3" cx="1062" cy="93" r="9"/>
<circle fill="#EB008B" stroke="#FFFFFF" stroke-width="0.3" cx="1101" cy="93" r="9"/>
<circle fill="#EB008B" stroke="#FFFFFF" stroke-width="0.3" cx="1140" cy="93" r="9"/>
<circle fill="#EB008B" stroke="#FFFFFF" stroke-width="0.3" cx="1179" cy="93" r="9"/>
<circle fill="#EB008B" stroke="#FFFFFF" stroke-width="0.3" cx="1218" cy="93" r="9"/>
<circle fill="#EB008B" stroke="#FFFFFF" stroke-width="0.3" cx="1257" cy="93" r="9"/>
<circle fill="#EB008B" stroke="#FFFFFF" stroke-width="0.3" cx="1296" cy="93" r="9"/>
<circle fill="#EB008B" stroke="#FFFFFF" stroke-width="0.3" cx="1335" cy="93" r="9"/>
<circle fill="#EB008B" stroke="#FFFFFF" stroke-width="0.3" cx="1374" cy="93" r="9"/>
<circle fill="#EB008B" stroke="#FFFFFF" stroke-width="0.3" cx="1413" cy="93" r="9"/>
<circle fill="#EB008B" stroke="#FFFFFF" stroke-width="0.3" cx="1452" cy="93" r="9"/>
<circle fill="#EB008B" stroke="#FFFFFF" stroke-width="0.3" cx="1491" cy="93" r="9"/>
<circle fill="#EB008B" stroke="#FFFFFF" stroke-width="0.3" cx="1530" cy="93" r="9"/>
<circle fill="#EB008B" stroke="#FFFFFF" stroke-width="0.3" cx="1569" cy="93" r="9"/>
<circle fill="#EB008B" stroke="#FFFFFF" stroke-width="0.3" cx="1608" cy="93" r="9"/>
<circle fill="#EB008B" stroke="#FFFFFF" stroke-width="0.3" cx="1647" cy="93" r="9"/>
<circle fill="#EB008B" stroke="#FFFFFF" stroke-width="0.3" cx="1686" cy="93" r="9"/>
<circle fill="#EB008B" stroke="#FFFFFF" stroke-width="0.3" cx="1725" cy="93" r="9"/>
<circle fill="#EB008B" stroke="#FFFFFF" stroke-width="0.3" cx="87" cy="132" r="9"/>
<circle fill="#EB008B" stroke="#FFFFFF" stroke-width="0.3" cx="126" cy="132" r="9"/>
<circle fill="#EB008B" stroke="#FFFFFF" stroke-width="0.3" cx="165" cy="132" r="9"/>
<circle fill="#EB008B" stroke="#FFFFFF" stroke-width="0.3" cx="204" cy="132" r="9"/>
<circle fill="#EB008B" stroke="#FFFFFF" stroke-width="0.3" cx="243" cy="132" r="9"/>
<circle fill="#EB008B" stroke="#FFFFFF" stroke-width="0.3" cx="282" cy="132" r="9"/>
<circle fill="#EB008B" stroke="#FFFFFF" stroke-width="0.3" cx="321" cy="132" r="9"/>
<circle fill="#EB008B" stroke="#FFFFFF" stroke-width="0.3" cx="360" cy="132" r="9"/>
<circle fill="#EB008B" stroke="#FFFFFF" stroke-width="0.3" cx="399" cy="132" r="9"/>
<circle fill="#EB008B" stroke="#FFFFFF" stroke-width="0.3" cx="516" cy="132" r="9"/>
<circle fill="#EB008B" stroke="#FFFFFF" stroke-width="0.3" cx="555" cy="132" r="9"/>
<circle fill="#EB008B" stroke="#FFFFFF" stroke-width="0.3" cx="867" cy="132" r="9"/>
<circle fill="#EB008B" stroke="#FFFFFF" stroke-width="0.3" cx="906" cy="132" r="9"/>
<circle fill="#EB008B" stroke="#FFFFFF" stroke-width="0.3" cx="945" cy="132" r="9"/>
<circle fill="#EB008B" stroke="#FFFFFF" stroke-width="0.3" cx="1023" cy="132" r="9"/>
<circle fill="#EB008B" stroke="#FFFFFF" stroke-width="0.3" cx="1062" cy="132" r="9"/>
<circle fill="#EB008B" stroke="#FFFFFF" stroke-width="0.3" cx="1101" cy="132" r="9"/>
<circle fill="#EB008B" stroke="#FFFFFF" stroke-width="0.3" cx="1140" cy="132" r="9"/>
<circle fill="#EB008B" stroke="#FFFFFF" stroke-width="0.3" cx="1179" cy="132" r="9"/>
<circle fill="#EB008B" stroke="#FFFFFF" stroke-width="0.3" cx="1218" cy="132" r="9"/>
<circle fill="#EB008B" stroke="#FFFFFF" stroke-width="0.3" cx="1257" cy="132" r="9"/>
<circle fill="#EB008B" stroke="#FFFFFF" stroke-width="0.3" cx="1296" cy="132" r="9"/>
<circle fill="#EB008B" stroke="#FFFFFF" stroke-width="0.3" cx="1335" cy="132" r="9"/>
<circle fill="#EB008B" stroke="#FFFFFF" stroke-width="0.3" cx="1374" cy="132" r="9"/>
<circle fill="#EB008B" stroke="#FFFFFF" stroke-width="0.3" cx="1413" cy="132" r="9"/>
<circle fill="#EB008B" stroke="#FFFFFF" stroke-width="0.3" cx="1452" cy="132" r="9"/>
<circle fill="#EB008B" stroke="#FFFFFF" stroke-width="0.3" cx="1491" cy="132" r="9"/>
<circle fill="#EB008B" stroke="#FFFFFF" stroke-width="0.3" cx="1530" cy="132" r="9"/>
<circle fill="#EB008B" stroke="#FFFFFF" stroke-width="0.3" cx="1569" cy="132" r="9"/>
<circle fill="#EB008B" stroke="#FFFFFF" stroke-width="0.3" cx="1608" cy="132" r="9"/>
<circle fill="#EB008B" stroke="#FFFFFF" stroke-width="0.3" cx="1647" cy="132" r="9"/>
<circle fill="#EB008B" stroke="#FFFFFF" stroke-width="0.3" cx="1686" cy="132" r="9"/>
<circle fill="#EB008B" stroke="#FFFFFF" stroke-width="0.3" cx="9" cy="171" r="9"/>
<circle fill="#EB008B" stroke="#FFFFFF" stroke-width="0.3" cx="48" cy="171" r="9"/>
<circle fill="#EB008B" stroke="#FFFFFF" stroke-width="0.3" cx="87" cy="171" r="9"/>
<circle fill="#EB008B" stroke="#FFFFFF" stroke-width="0.3" cx="204" cy="171" r="9"/>
<circle fill="#EB008B" stroke="#FFFFFF" stroke-width="0.3" cx="243" cy="171" r="9"/>
<circle fill="#EB008B" stroke="#FFFFFF" stroke-width="0.3" cx="282" cy="171" r="9"/>
<circle fill="#EB008B" stroke="#FFFFFF" stroke-width="0.3" cx="321" cy="171" r="9"/>
<circle fill="#EB008B" stroke="#FFFFFF" stroke-width="0.3" cx="360" cy="171" r="9"/>
<circle fill="#EB008B" stroke="#FFFFFF" stroke-width="0.3" cx="399" cy="171" r="9"/>
<circle fill="#EB008B" stroke="#FFFFFF" stroke-width="0.3" cx="438" cy="171" r="9"/>
<circle fill="#EB008B" stroke="#FFFFFF" stroke-width="0.3" cx="516" cy="171" r="9"/>
<circle fill="#EB008B" stroke="#FFFFFF" stroke-width="0.3" cx="555" cy="171" r="9"/>
<circle fill="#EB008B" stroke="#FFFFFF" stroke-width="0.3" cx="594" cy="171" r="9"/>
<circle fill="#EB008B" stroke="#FFFFFF" stroke-width="0.3" cx="828" cy="171" r="9"/>
<circle fill="#EB008B" stroke="#FFFFFF" stroke-width="0.3" cx="867" cy="171" r="9"/>
<circle fill="#EB008B" stroke="#FFFFFF" stroke-width="0.3" cx="906" cy="171" r="9"/>
<circle fill="#EB008B" stroke="#FFFFFF" stroke-width="0.3" cx="945" cy="171" r="9"/>
<circle fill="#EB008B" stroke="#FFFFFF" stroke-width="0.3" cx="984" cy="171" r="9"/>
<circle fill="#EB008B" stroke="#FFFFFF" stroke-width="0.3" cx="1023" cy="171" r="9"/>
<circle fill="#EB008B" stroke="#FFFFFF" stroke-width="0.3" cx="1062" cy="171" r="9"/>
<circle fill="#EB008B" stroke="#FFFFFF" stroke-width="0.3" cx="1101" cy="171" r="9"/>
<circle fill="#EB008B" stroke="#FFFFFF" stroke-width="0.3" cx="1140" cy="171" r="9"/>
<circle fill="#EB008B" stroke="#FFFFFF" stroke-width="0.3" cx="1179" cy="171" r="9"/>
<circle fill="#EB008B" stroke="#FFFFFF" stroke-width="0.3" cx="1218" cy="171" r="9"/>
<circle fill="#EB008B" stroke="#FFFFFF" stroke-width="0.3" cx="1257" cy="171" r="9"/>
<circle fill="#EB008B" stroke="#FFFFFF" stroke-width="0.3" cx="1296" cy="171" r="9"/>
<circle fill="#EB008B" stroke="#FFFFFF" stroke-width="0.3" cx="1335" cy="171" r="9"/>
<circle fill="#EB008B" stroke="#FFFFFF" stroke-width="0.3" cx="1374" cy="171" r="9"/>
<circle fill="#EB008B" stroke="#FFFFFF" stroke-width="0.3" cx="1413" cy="171" r="9"/>
<circle fill="#EB008B" stroke="#FFFFFF" stroke-width="0.3" cx="1452" cy="171" r="9"/>
<circle fill="#EB008B" stroke="#FFFFFF" stroke-width="0.3" cx="1491" cy="171" r="9"/>
<circle fill="#EB008B" stroke="#FFFFFF" stroke-width="0.3" cx="1530" cy="171" r="9"/>
<circle fill="#EB008B" stroke="#FFFFFF" stroke-width="0.3" cx="1569" cy="171" r="9"/>
<circle fill="#EB008B" stroke="#FFFFFF" stroke-width="0.3" cx="1608" cy="171" r="9"/>
<circle fill="#EB008B" stroke="#FFFFFF" stroke-width="0.3" cx="1686" cy="171" r="9"/>
<circle fill="#EB008B" stroke="#FFFFFF" stroke-width="0.3" cx="204" cy="210" r="9"/>
<circle fill="#EB008B" stroke="#FFFFFF" stroke-width="0.3" cx="243" cy="210" r="9"/>
<circle fill="#EB008B" stroke="#FFFFFF" stroke-width="0.3" cx="282" cy="210" r="9"/>
<circle fill="#EB008B" stroke="#FFFFFF" stroke-width="0.3" cx="321" cy="210" r="9"/>
<circle fill="#EB008B" stroke="#FFFFFF" stroke-width="0.3" cx="360" cy="210" r="9"/>
<circle fill="#EB008B" stroke="#FFFFFF" stroke-width="0.3" cx="399" cy="210" r="9"/>
<circle fill="#EB008B" stroke="#FFFFFF" stroke-width="0.3" cx="438" cy="210" r="9"/>
<circle fill="#EB008B" stroke="#FFFFFF" stroke-width="0.3" cx="477" cy="210" r="9"/>
<circle fill="#EB008B" stroke="#FFFFFF" stroke-width="0.3" cx="516" cy="210" r="9"/>
<circle fill="#EB008B" stroke="#FFFFFF" stroke-width="0.3" cx="594" cy="210" r="9"/>
<circle fill="#EB008B" stroke="#FFFFFF" stroke-width="0.3" cx="867" cy="210" r="9"/>
<circle fill="#EB008B" stroke="#FFFFFF" stroke-width="0.3" cx="906" cy="210" r="9"/>
<circle fill="#EB008B" stroke="#FFFFFF" stroke-width="0.3" cx="945" cy="210" r="9"/>
<circle fill="#EB008B" stroke="#FFFFFF" stroke-width="0.3" cx="984" cy="210" r="9"/>
<circle fill="#EB008B" stroke="#FFFFFF" stroke-width="0.3" cx="1023" cy="210" r="9"/>
<circle fill="#EB008B" stroke="#FFFFFF" stroke-width="0.3" cx="1101" cy="210" r="9"/>
<circle fill="#EB008B" stroke="#FFFFFF" stroke-width="0.3" cx="1179" cy="210" r="9"/>
<circle fill="#EB008B" stroke="#FFFFFF" stroke-width="0.3" cx="1218" cy="210" r="9"/>
<circle fill="#EB008B" stroke="#FFFFFF" stroke-width="0.3" cx="1257" cy="210" r="9"/>
<circle fill="#EB008B" stroke="#FFFFFF" stroke-width="0.3" cx="1296" cy="210" r="9"/>
<circle fill="#EB008B" stroke="#FFFFFF" stroke-width="0.3" cx="1335" cy="210" r="9"/>
<circle fill="#EB008B" stroke="#FFFFFF" stroke-width="0.3" cx="1374" cy="210" r="9"/>
<circle fill="#EB008B" stroke="#FFFFFF" stroke-width="0.3" cx="1413" cy="210" r="9"/>
<circle fill="#EB008B" stroke="#FFFFFF" stroke-width="0.3" cx="1452" cy="210" r="9"/>
<circle fill="#EB008B" stroke="#FFFFFF" stroke-width="0.3" cx="1491" cy="210" r="9"/>
<circle fill="#EB008B" stroke="#FFFFFF" stroke-width="0.3" cx="1530" cy="210" r="9"/>
<circle fill="#EB008B" stroke="#FFFFFF" stroke-width="0.3" cx="1569" cy="210" r="9"/>
<circle fill="#EB008B" stroke="#FFFFFF" stroke-width="0.3" cx="1608" cy="210" r="9"/>
<circle fill="#EB008B" stroke="#FFFFFF" stroke-width="0.3" cx="1647" cy="210" r="9"/>
<circle fill="#EB008B" stroke="#FFFFFF" stroke-width="0.3" cx="204" cy="249" r="9"/>
<circle fill="#EB008B" stroke="#FFFFFF" stroke-width="0.3" cx="243" cy="249" r="9"/>
<circle fill="#EB008B" stroke="#FFFFFF" stroke-width="0.3" cx="282" cy="249" r="9"/>
<circle fill="#EB008B" stroke="#FFFFFF" stroke-width="0.3" cx="321" cy="249" r="9"/>
<circle fill="#EB008B" stroke="#FFFFFF" stroke-width="0.3" cx="360" cy="249" r="9"/>
<circle fill="#EB008B" stroke="#FFFFFF" stroke-width="0.3" cx="399" cy="249" r="9"/>
<circle fill="#EB008B" stroke="#FFFFFF" stroke-width="0.3" cx="438" cy="249" r="9"/>
<circle fill="#EB008B" stroke="#FFFFFF" stroke-width="0.3" cx="477" cy="249" r="9"/>
<circle fill="#EB008B" stroke="#FFFFFF" stroke-width="0.3" cx="828" cy="249" r="9"/>
<circle fill="#EB008B" stroke="#FFFFFF" stroke-width="0.3" cx="867" cy="249" r="9"/>
<circle fill="#EB008B" stroke="#FFFFFF" stroke-width="0.3" cx="945" cy="249" r="9"/>
<circle fill="#EB008B" stroke="#FFFFFF" stroke-width="0.3" cx="984" cy="249" r="9"/>
<circle fill="#EB008B" stroke="#FFFFFF" stroke-width="0.3" cx="1023" cy="249" r="9"/>
<circle fill="#EB008B" stroke="#FFFFFF" stroke-width="0.3" cx="1062" cy="249" r="9"/>
<circle fill="#EB008B" stroke="#FFFFFF" stroke-width="0.3" cx="1101" cy="249" r="9"/>
<circle fill="#EB008B" stroke="#FFFFFF" stroke-width="0.3" cx="1179" cy="249" r="9"/>
<circle fill="#EB008B" stroke="#FFFFFF" stroke-width="0.3" cx="1218" cy="249" r="9"/>
<circle fill="#EB008B" stroke="#FFFFFF" stroke-width="0.3" cx="1257" cy="249" r="9"/>
<circle fill="#EB008B" stroke="#FFFFFF" stroke-width="0.3" cx="1296" cy="249" r="9"/>
<circle fill="#EB008B" stroke="#FFFFFF" stroke-width="0.3" cx="1335" cy="249" r="9"/>
<circle fill="#EB008B" stroke="#FFFFFF" stroke-width="0.3" cx="1374" cy="249" r="9"/>
<circle fill="#EB008B" stroke="#FFFFFF" stroke-width="0.3" cx="1413" cy="249" r="9"/>
<circle fill="#EB008B" stroke="#FFFFFF" stroke-width="0.3" cx="1452" cy="249" r="9"/>
<circle fill="#EB008B" stroke="#FFFFFF" stroke-width="0.3" cx="1491" cy="249" r="9"/>
<circle fill="#EB008B" stroke="#FFFFFF" stroke-width="0.3" cx="1530" cy="249" r="9"/>
<circle fill="#EB008B" stroke="#FFFFFF" stroke-width="0.3" cx="1569" cy="249" r="9"/>
<circle fill="#EB008B" stroke="#FFFFFF" stroke-width="0.3" cx="1647" cy="249" r="9"/>
<circle fill="#EB008B" stroke="#FFFFFF" stroke-width="0.3" cx="204" cy="288" r="9"/>
<circle fill="#EB008B" stroke="#FFFFFF" stroke-width="0.3" cx="243" cy="288" r="9"/>
<circle fill="#EB008B" stroke="#FFFFFF" stroke-width="0.3" cx="282" cy="288" r="9"/>
<circle fill="#EB008B" stroke="#FFFFFF" stroke-width="0.3" cx="321" cy="288" r="9"/>
<circle fill="#EB008B" stroke="#FFFFFF" stroke-width="0.3" cx="360" cy="288" r="9"/>
<circle fill="#EB008B" stroke="#FFFFFF" stroke-width="0.3" cx="399" cy="288" r="9"/>
<circle fill="#EB008B" stroke="#FFFFFF" stroke-width="0.3" cx="438" cy="288" r="9"/>
<circle fill="#EB008B" stroke="#FFFFFF" stroke-width="0.3" cx="828" cy="288" r="9"/>
<circle fill="#EB008B" stroke="#FFFFFF" stroke-width="0.3" cx="867" cy="288" r="9"/>
<circle fill="#EB008B" stroke="#FFFFFF" stroke-width="0.3" cx="906" cy="288" r="9"/>
<circle fill="#EB008B" stroke="#FFFFFF" stroke-width="0.3" cx="1101" cy="288" r="9"/>
<circle fill="#EB008B" stroke="#FFFFFF" stroke-width="0.3" cx="1140" cy="288" r="9"/>
<circle fill="#EB008B" stroke="#FFFFFF" stroke-width="0.3" cx="1179" cy="288" r="9"/>
<circle fill="#EB008B" stroke="#FFFFFF" stroke-width="0.3" cx="1218" cy="288" r="9"/>
<circle fill="#EB008B" stroke="#FFFFFF" stroke-width="0.3" cx="1257" cy="288" r="9"/>
<circle fill="#EB008B" stroke="#FFFFFF" stroke-width="0.3" cx="1296" cy="288" r="9"/>
<circle fill="#EB008B" stroke="#FFFFFF" stroke-width="0.3" cx="1335" cy="288" r="9"/>
<circle fill="#EB008B" stroke="#FFFFFF" stroke-width="0.3" cx="1374" cy="288" r="9"/>
<circle fill="#EB008B" stroke="#FFFFFF" stroke-width="0.3" cx="1413" cy="288" r="9"/>
<circle fill="#EB008B" stroke="#FFFFFF" stroke-width="0.3" cx="1452" cy="288" r="9"/>
<circle fill="#EB008B" stroke="#FFFFFF" stroke-width="0.3" cx="1491" cy="288" r="9"/>
<circle fill="#EB008B" stroke="#FFFFFF" stroke-width="0.3" cx="1530" cy="288" r="9"/>
<circle fill="#EB008B" stroke="#FFFFFF" stroke-width="0.3" cx="1569" cy="288" r="9"/>
<circle fill="#EB008B" stroke="#FFFFFF" stroke-width="0.3" cx="1608" cy="288" r="9"/>
<circle fill="#EB008B" stroke="#FFFFFF" stroke-width="0.3" cx="1647" cy="288" r="9"/>
<circle fill="#EB008B" stroke="#FFFFFF" stroke-width="0.3" cx="204" cy="327" r="9"/>
<circle fill="#EB008B" stroke="#FFFFFF" stroke-width="0.3" cx="243" cy="327" r="9"/>
<circle fill="#EB008B" stroke="#FFFFFF" stroke-width="0.3" cx="282" cy="327" r="9"/>
<circle fill="#EB008B" stroke="#FFFFFF" stroke-width="0.3" cx="321" cy="327" r="9"/>
<circle fill="#EB008B" stroke="#FFFFFF" stroke-width="0.3" cx="360" cy="327" r="9"/>
<circle fill="#EB008B" stroke="#FFFFFF" stroke-width="0.3" cx="399" cy="327" r="9"/>
<circle fill="#EB008B" stroke="#FFFFFF" stroke-width="0.3" cx="828" cy="327" r="9"/>
<circle fill="#EB008B" stroke="#FFFFFF" stroke-width="0.3" cx="867" cy="327" r="9"/>
<circle fill="#EB008B" stroke="#FFFFFF" stroke-width="0.3" cx="906" cy="327" r="9"/>
<circle fill="#EB008B" stroke="#FFFFFF" stroke-width="0.3" cx="945" cy="327" r="9"/>
<circle fill="#EB008B" stroke="#FFFFFF" stroke-width="0.3" cx="984" cy="327" r="9"/>
<circle fill="#EB008B" stroke="#FFFFFF" stroke-width="0.3" cx="1023" cy="327" r="9"/>
<circle fill="#EB008B" stroke="#FFFFFF" stroke-width="0.3" cx="1062" cy="327" r="9"/>
<circle fill="#EB008B" stroke="#FFFFFF" stroke-width="0.3" cx="1101" cy="327" r="9"/>
<circle fill="#EB008B" stroke="#FFFFFF" stroke-width="0.3" cx="1140" cy="327" r="9"/>
<circle fill="#EB008B" stroke="#FFFFFF" stroke-width="0.3" cx="1179" cy="327" r="9"/>
<circle fill="#EB008B" stroke="#FFFFFF" stroke-width="0.3" cx="1218" cy="327" r="9"/>
<circle fill="#EB008B" stroke="#FFFFFF" stroke-width="0.3" cx="1257" cy="327" r="9"/>
<circle fill="#EB008B" stroke="#FFFFFF" stroke-width="0.3" cx="1296" cy="327" r="9"/>
<circle fill="#EB008B" stroke="#FFFFFF" stroke-width="0.3" cx="1335" cy="327" r="9"/>
<circle fill="#EB008B" stroke="#FFFFFF" stroke-width="0.3" cx="1374" cy="327" r="9"/>
<circle fill="#EB008B" stroke="#FFFFFF" stroke-width="0.3" cx="1413" cy="327" r="9"/>
<circle fill="#EB008B" stroke="#FFFFFF" stroke-width="0.3" cx="1452" cy="327" r="9"/>
<circle fill="#EB008B" stroke="#FFFFFF" stroke-width="0.3" cx="1491" cy="327" r="9"/>
<circle fill="#EB008B" stroke="#FFFFFF" stroke-width="0.3" cx="1530" cy="327" r="9"/>
<circle fill="#EB008B" stroke="#FFFFFF" stroke-width="0.3" cx="1569" cy="327" r="9"/>
<circle fill="#EB008B" stroke="#FFFFFF" stroke-width="0.3" cx="204" cy="366" r="9"/>
<circle fill="#EB008B" stroke="#FFFFFF" stroke-width="0.3" cx="243" cy="366" r="9"/>
<circle fill="#EB008B" stroke="#FFFFFF" stroke-width="0.3" cx="282" cy="366" r="9"/>
<circle fill="#EB008B" stroke="#FFFFFF" stroke-width="0.3" cx="399" cy="366" r="9"/>
<circle fill="#EB008B" stroke="#FFFFFF" stroke-width="0.3" cx="789" cy="366" r="9"/>
<circle fill="#EB008B" stroke="#FFFFFF" stroke-width="0.3" cx="828" cy="366" r="9"/>
<circle fill="#EB008B" stroke="#FFFFFF" stroke-width="0.3" cx="867" cy="366" r="9"/>
<circle fill="#EB008B" stroke="#FFFFFF" stroke-width="0.3" cx="906" cy="366" r="9"/>
<circle fill="#EB008B" stroke="#FFFFFF" stroke-width="0.3" cx="945" cy="366" r="9"/>
<circle fill="#EB008B" stroke="#FFFFFF" stroke-width="0.3" cx="984" cy="366" r="9"/>
<circle fill="#EB008B" stroke="#FFFFFF" stroke-width="0.3" cx="1023" cy="366" r="9"/>
<circle fill="#EB008B" stroke="#FFFFFF" stroke-width="0.3" cx="1062" cy="366" r="9"/>
<circle fill="#EB008B" stroke="#FFFFFF" stroke-width="0.3" cx="1101" cy="366" r="9"/>
<circle fill="#EB008B" stroke="#FFFFFF" stroke-width="0.3" cx="1140" cy="366" r="9"/>
<circle fill="#EB008B" stroke="#FFFFFF" stroke-width="0.3" cx="1179" cy="366" r="9"/>
<circle fill="#EB008B" stroke="#FFFFFF" stroke-width="0.3" cx="1218" cy="366" r="9"/>
<circle fill="#EB008B" stroke="#FFFFFF" stroke-width="0.3" cx="1257" cy="366" r="9"/>
<circle fill="#EB008B" stroke="#FFFFFF" stroke-width="0.3" cx="1296" cy="366" r="9"/>
<circle fill="#EB008B" stroke="#FFFFFF" stroke-width="0.3" cx="1335" cy="366" r="9"/>
<circle fill="#EB008B" stroke="#FFFFFF" stroke-width="0.3" cx="1374" cy="366" r="9"/>
<circle fill="#EB008B" stroke="#FFFFFF" stroke-width="0.3" cx="1413" cy="366" r="9"/>
<circle fill="#EB008B" stroke="#FFFFFF" stroke-width="0.3" cx="1452" cy="366" r="9"/>
<circle fill="#EB008B" stroke="#FFFFFF" stroke-width="0.3" cx="1491" cy="366" r="9"/>
<circle fill="#EB008B" stroke="#FFFFFF" stroke-width="0.3" cx="1530" cy="366" r="9"/>
<circle fill="#EB008B" stroke="#FFFFFF" stroke-width="0.3" cx="1569" cy="366" r="9"/>
<circle fill="#EB008B" stroke="#FFFFFF" stroke-width="0.3" cx="243" cy="405" r="9"/>
<circle fill="#EB008B" stroke="#FFFFFF" stroke-width="0.3" cx="282" cy="405" r="9"/>
<circle fill="#EB008B" stroke="#FFFFFF" stroke-width="0.3" cx="321" cy="405" r="9"/>
<circle fill="#EB008B" stroke="#FFFFFF" stroke-width="0.3" cx="438" cy="405" r="9"/>
<circle fill="#EB008B" stroke="#FFFFFF" stroke-width="0.3" cx="477" cy="405" r="9"/>
<circle fill="#EB008B" stroke="#FFFFFF" stroke-width="0.3" cx="789" cy="405" r="9"/>
<circle fill="#EB008B" stroke="#FFFFFF" stroke-width="0.3" cx="828" cy="405" r="9"/>
<circle fill="#EB008B" stroke="#FFFFFF" stroke-width="0.3" cx="867" cy="405" r="9"/>
<circle fill="#EB008B" stroke="#FFFFFF" stroke-width="0.3" cx="906" cy="405" r="9"/>
<circle fill="#EB008B" stroke="#FFFFFF" stroke-width="0.3" cx="945" cy="405" r="9"/>
<circle fill="#EB008B" stroke="#FFFFFF" stroke-width="0.3" cx="984" cy="405" r="9"/>
<circle fill="#EB008B" stroke="#FFFFFF" stroke-width="0.3" cx="1023" cy="405" r="9"/>
<circle fill="#EB008B" stroke="#FFFFFF" stroke-width="0.3" cx="1062" cy="405" r="9"/>
<circle fill="#EB008B" stroke="#FFFFFF" stroke-width="0.3" cx="1101" cy="405" r="9"/>
<circle fill="#EB008B" stroke="#FFFFFF" stroke-width="0.3" cx="1140" cy="405" r="9"/>
<circle fill="#EB008B" stroke="#FFFFFF" stroke-width="0.3" cx="1179" cy="405" r="9"/>
<circle fill="#EB008B" stroke="#FFFFFF" stroke-width="0.3" cx="1218" cy="405" r="9"/>
<circle fill="#EB008B" stroke="#FFFFFF" stroke-width="0.3" cx="1296" cy="405" r="9"/>
<circle fill="#EB008B" stroke="#FFFFFF" stroke-width="0.3" cx="1335" cy="405" r="9"/>
<circle fill="#EB008B" stroke="#FFFFFF" stroke-width="0.3" cx="1374" cy="405" r="9"/>
<circle fill="#EB008B" stroke="#FFFFFF" stroke-width="0.3" cx="1452" cy="405" r="9"/>
<circle fill="#EB008B" stroke="#FFFFFF" stroke-width="0.3" cx="1491" cy="405" r="9"/>
<circle fill="#EB008B" stroke="#FFFFFF" stroke-width="0.3" cx="1530" cy="405" r="9"/>
<circle fill="#EB008B" stroke="#FFFFFF" stroke-width="0.3" cx="1569" cy="405" r="9"/>
<circle fill="#EB008B" stroke="#FFFFFF" stroke-width="0.3" cx="321" cy="444" r="9"/>
<circle fill="#EB008B" stroke="#FFFFFF" stroke-width="0.3" cx="360" cy="444" r="9"/>
<circle fill="#EB008B" stroke="#FFFFFF" stroke-width="0.3" cx="789" cy="444" r="9"/>
<circle fill="#EB008B" stroke="#FFFFFF" stroke-width="0.3" cx="828" cy="444" r="9"/>
<circle fill="#EB008B" stroke="#FFFFFF" stroke-width="0.3" cx="867" cy="444" r="9"/>
<circle fill="#EB008B" stroke="#FFFFFF" stroke-width="0.3" cx="906" cy="444" r="9"/>
<circle fill="#EB008B" stroke="#FFFFFF" stroke-width="0.3" cx="945" cy="444" r="9"/>
<circle fill="#EB008B" stroke="#FFFFFF" stroke-width="0.3" cx="984" cy="444" r="9"/>
<circle fill="#EB008B" stroke="#FFFFFF" stroke-width="0.3" cx="1023" cy="444" r="9"/>
<circle fill="#EB008B" stroke="#FFFFFF" stroke-width="0.3" cx="1062" cy="444" r="9"/>
<circle fill="#EB008B" stroke="#FFFFFF" stroke-width="0.3" cx="1101" cy="444" r="9"/>
<circle fill="#EB008B" stroke="#FFFFFF" stroke-width="0.3" cx="1140" cy="444" r="9"/>
<circle fill="#EB008B" stroke="#FFFFFF" stroke-width="0.3" cx="1179" cy="444" r="9"/>
<circle fill="#EB008B" stroke="#FFFFFF" stroke-width="0.3" cx="1335" cy="444" r="9"/>
<circle fill="#EB008B" stroke="#FFFFFF" stroke-width="0.3" cx="1452" cy="444" r="9"/>
<circle fill="#EB008B" stroke="#FFFFFF" stroke-width="0.3" cx="1491" cy="444" r="9"/>
<circle fill="#EB008B" stroke="#FFFFFF" stroke-width="0.3" cx="1608" cy="444" r="9"/>
<circle fill="#EB008B" stroke="#FFFFFF" stroke-width="0.3" cx="399" cy="483" r="9"/>
<circle fill="#EB008B" stroke="#FFFFFF" stroke-width="0.3" cx="438" cy="483" r="9"/>
<circle fill="#EB008B" stroke="#FFFFFF" stroke-width="0.3" cx="477" cy="483" r="9"/>
<circle fill="#EB008B" stroke="#FFFFFF" stroke-width="0.3" cx="516" cy="483" r="9"/>
<circle fill="#EB008B" stroke="#FFFFFF" stroke-width="0.3" cx="828" cy="483" r="9"/>
<circle fill="#EB008B" stroke="#FFFFFF" stroke-width="0.3" cx="867" cy="483" r="9"/>
<circle fill="#EB008B" stroke="#FFFFFF" stroke-width="0.3" cx="906" cy="483" r="9"/>
<circle fill="#EB008B" stroke="#FFFFFF" stroke-width="0.3" cx="945" cy="483" r="9"/>
<circle fill="#EB008B" stroke="#FFFFFF" stroke-width="0.3" cx="984" cy="483" r="9"/>
<circle fill="#EB008B" stroke="#FFFFFF" stroke-width="0.3" cx="1023" cy="483" r="9"/>
<circle fill="#EB008B" stroke="#FFFFFF" stroke-width="0.3" cx="1062" cy="483" r="9"/>
<circle fill="#EB008B" stroke="#FFFFFF" stroke-width="0.3" cx="1101" cy="483" r="9"/>
<circle fill="#EB008B" stroke="#FFFFFF" stroke-width="0.3" cx="1140" cy="483" r="9"/>
<circle fill="#EB008B" stroke="#FFFFFF" stroke-width="0.3" cx="1335" cy="483" r="9"/>
<circle fill="#EB008B" stroke="#FFFFFF" stroke-width="0.3" cx="1452" cy="483" r="9"/>
<circle fill="#EB008B" stroke="#FFFFFF" stroke-width="0.3" cx="1569" cy="483" r="9"/>
<circle fill="#EB008B" stroke="#FFFFFF" stroke-width="0.3" cx="1608" cy="483" r="9"/>
<circle fill="#EB008B" stroke="#FFFFFF" stroke-width="0.3" cx="399" cy="522" r="9"/>
<circle fill="#EB008B" stroke="#FFFFFF" stroke-width="0.3" cx="438" cy="522" r="9"/>
<circle fill="#EB008B" stroke="#FFFFFF" stroke-width="0.3" cx="477" cy="522" r="9"/>
<circle fill="#EB008B" stroke="#FFFFFF" stroke-width="0.3" cx="516" cy="522" r="9"/>
<circle fill="#EB008B" stroke="#FFFFFF" stroke-width="0.3" cx="555" cy="522" r="9"/>
<circle fill="#EB008B" stroke="#FFFFFF" stroke-width="0.3" cx="945" cy="522" r="9"/>
<circle fill="#EB008B" stroke="#FFFFFF" stroke-width="0.3" cx="984" cy="522" r="9"/>
<circle fill="#EB008B" stroke="#FFFFFF" stroke-width="0.3" cx="1023" cy="522" r="9"/>
<circle fill="#EB008B" stroke="#FFFFFF" stroke-width="0.3" cx="1062" cy="522" r="9"/>
<circle fill="#EB008B" stroke="#FFFFFF" stroke-width="0.3" cx="1101" cy="522" r="9"/>
<circle fill="#EB008B" stroke="#FFFFFF" stroke-width="0.3" cx="1140" cy="522" r="9"/>
<circle fill="#EB008B" stroke="#FFFFFF" stroke-width="0.3" cx="1452" cy="522" r="9"/>
<circle fill="#EB008B" stroke="#FFFFFF" stroke-width="0.3" cx="1491" cy="522" r="9"/>
<circle fill="#EB008B" stroke="#FFFFFF" stroke-width="0.3" cx="1530" cy="522" r="9"/>
<circle fill="#EB008B" stroke="#FFFFFF" stroke-width="0.3" cx="1569" cy="522" r="9"/>
<circle fill="#EB008B" stroke="#FFFFFF" stroke-width="0.3" cx="1608" cy="522" r="9"/>
<circle fill="#EB008B" stroke="#FFFFFF" stroke-width="0.3" cx="1647" cy="522" r="9"/>
<circle fill="#EB008B" stroke="#FFFFFF" stroke-width="0.3" cx="399" cy="561" r="9"/>
<circle fill="#EB008B" stroke="#FFFFFF" stroke-width="0.3" cx="438" cy="561" r="9"/>
<circle fill="#EB008B" stroke="#FFFFFF" stroke-width="0.3" cx="477" cy="561" r="9"/>
<circle fill="#EB008B" stroke="#FFFFFF" stroke-width="0.3" cx="516" cy="561" r="9"/>
<circle fill="#EB008B" stroke="#FFFFFF" stroke-width="0.3" cx="555" cy="561" r="9"/>
<circle fill="#EB008B" stroke="#FFFFFF" stroke-width="0.3" cx="594" cy="561" r="9"/>
<circle fill="#EB008B" stroke="#FFFFFF" stroke-width="0.3" cx="633" cy="561" r="9"/>
<circle fill="#EB008B" stroke="#FFFFFF" stroke-width="0.3" cx="945" cy="561" r="9"/>
<circle fill="#EB008B" stroke="#FFFFFF" stroke-width="0.3" cx="984" cy="561" r="9"/>
<circle fill="#EB008B" stroke="#FFFFFF" stroke-width="0.3" cx="1023" cy="561" r="9"/>
<circle fill="#EB008B" stroke="#FFFFFF" stroke-width="0.3" cx="1062" cy="561" r="9"/>
<circle fill="#EB008B" stroke="#FFFFFF" stroke-width="0.3" cx="1101" cy="561" r="9"/>
<circle fill="#EB008B" stroke="#FFFFFF" stroke-width="0.3" cx="1491" cy="561" r="9"/>
<circle fill="#EB008B" stroke="#FFFFFF" stroke-width="0.3" cx="1530" cy="561" r="9"/>
<circle fill="#EB008B" stroke="#FFFFFF" stroke-width="0.3" cx="1569" cy="561" r="9"/>
<circle fill="#EB008B" stroke="#FFFFFF" stroke-width="0.3" cx="1608" cy="561" r="9"/>
<circle fill="#EB008B" stroke="#FFFFFF" stroke-width="0.3" cx="1686" cy="561" r="9"/>
<circle fill="#EB008B" stroke="#FFFFFF" stroke-width="0.3" cx="1725" cy="561" r="9"/>
<circle fill="#EB008B" stroke="#FFFFFF" stroke-width="0.3" cx="399" cy="600" r="9"/>
<circle fill="#EB008B" stroke="#FFFFFF" stroke-width="0.3" cx="438" cy="600" r="9"/>
<circle fill="#EB008B" stroke="#FFFFFF" stroke-width="0.3" cx="477" cy="600" r="9"/>
<circle fill="#EB008B" stroke="#FFFFFF" stroke-width="0.3" cx="516" cy="600" r="9"/>
<circle fill="#EB008B" stroke="#FFFFFF" stroke-width="0.3" cx="555" cy="600" r="9"/>
<circle fill="#EB008B" stroke="#FFFFFF" stroke-width="0.3" cx="594" cy="600" r="9"/>
<circle fill="#EB008B" stroke="#FFFFFF" stroke-width="0.3" cx="633" cy="600" r="9"/>
<circle fill="#EB008B" stroke="#FFFFFF" stroke-width="0.3" cx="945" cy="600" r="9"/>
<circle fill="#EB008B" stroke="#FFFFFF" stroke-width="0.3" cx="984" cy="600" r="9"/>
<circle fill="#EB008B" stroke="#FFFFFF" stroke-width="0.3" cx="1023" cy="600" r="9"/>
<circle fill="#EB008B" stroke="#FFFFFF" stroke-width="0.3" cx="1062" cy="600" r="9"/>
<circle fill="#EB008B" stroke="#FFFFFF" stroke-width="0.3" cx="1101" cy="600" r="9"/>
<circle fill="#EB008B" stroke="#FFFFFF" stroke-width="0.3" cx="1569" cy="600" r="9"/>
<circle fill="#EB008B" stroke="#FFFFFF" stroke-width="0.3" cx="1608" cy="600" r="9"/>
<circle fill="#EB008B" stroke="#FFFFFF" stroke-width="0.3" cx="1725" cy="600" r="9"/>
<circle fill="#EB008B" stroke="#FFFFFF" stroke-width="0.3" cx="1764" cy="600" r="9"/>
<circle fill="#EB008B" stroke="#FFFFFF" stroke-width="0.3" cx="438" cy="639" r="9"/>
<circle fill="#EB008B" stroke="#FFFFFF" stroke-width="0.3" cx="477" cy="639" r="9"/>
<circle fill="#EB008B" stroke="#FFFFFF" stroke-width="0.3" cx="516" cy="639" r="9"/>
<circle fill="#EB008B" stroke="#FFFFFF" stroke-width="0.3" cx="555" cy="639" r="9"/>
<circle fill="#EB008B" stroke="#FFFFFF" stroke-width="0.3" cx="594" cy="639" r="9"/>
<circle fill="#EB008B" stroke="#FFFFFF" stroke-width="0.3" cx="633" cy="639" r="9"/>
<circle fill="#EB008B" stroke="#FFFFFF" stroke-width="0.3" cx="945" cy="639" r="9"/>
<circle fill="#EB008B" stroke="#FFFFFF" stroke-width="0.3" cx="984" cy="639" r="9"/>
<circle fill="#EB008B" stroke="#FFFFFF" stroke-width="0.3" cx="1023" cy="639" r="9"/>
<circle fill="#EB008B" stroke="#FFFFFF" stroke-width="0.3" cx="1062" cy="639" r="9"/>
<circle fill="#EB008B" stroke="#FFFFFF" stroke-width="0.3" cx="1101" cy="639" r="9"/>
<circle fill="#EB008B" stroke="#FFFFFF" stroke-width="0.3" cx="1140" cy="639" r="9"/>
<circle fill="#EB008B" stroke="#FFFFFF" stroke-width="0.3" cx="1608" cy="639" r="9"/>
<circle fill="#EB008B" stroke="#FFFFFF" stroke-width="0.3" cx="1647" cy="639" r="9"/>
<circle fill="#EB008B" stroke="#FFFFFF" stroke-width="0.3" cx="1686" cy="639" r="9"/>
<circle fill="#EB008B" stroke="#FFFFFF" stroke-width="0.3" cx="1725" cy="639" r="9"/>
<circle fill="#EB008B" stroke="#FFFFFF" stroke-width="0.3" cx="477" cy="678" r="9"/>
<circle fill="#EB008B" stroke="#FFFFFF" stroke-width="0.3" cx="516" cy="678" r="9"/>
<circle fill="#EB008B" stroke="#FFFFFF" stroke-width="0.3" cx="555" cy="678" r="9"/>
<circle fill="#EB008B" stroke="#FFFFFF" stroke-width="0.3" cx="594" cy="678" r="9"/>
<circle fill="#EB008B" stroke="#FFFFFF" stroke-width="0.3" cx="945" cy="678" r="9"/>
<circle fill="#EB008B" stroke="#FFFFFF" stroke-width="0.3" cx="984" cy="678" r="9"/>
<circle fill="#EB008B" stroke="#FFFFFF" stroke-width="0.3" cx="1023" cy="678" r="9"/>
<circle fill="#EB008B" stroke="#FFFFFF" stroke-width="0.3" cx="1062" cy="678" r="9"/>
<circle fill="#EB008B" stroke="#FFFFFF" stroke-width="0.3" cx="1140" cy="678" r="9"/>
<circle fill="#EB008B" stroke="#FFFFFF" stroke-width="0.3" cx="1569" cy="678" r="9"/>
<circle fill="#EB008B" stroke="#FFFFFF" stroke-width="0.3" cx="1608" cy="678" r="9"/>
<circle fill="#EB008B" stroke="#FFFFFF" stroke-width="0.3" cx="1647" cy="678" r="9"/>
<circle fill="#EB008B" stroke="#FFFFFF" stroke-width="0.3" cx="1686" cy="678" r="9"/>
<circle fill="#EB008B" stroke="#FFFFFF" stroke-width="0.3" cx="1725" cy="678" r="9"/>
<circle fill="#EB008B" stroke="#FFFFFF" stroke-width="0.3" cx="477" cy="717" r="9"/>
<circle fill="#EB008B" stroke="#FFFFFF" stroke-width="0.3" cx="516" cy="717" r="9"/>
<circle fill="#EB008B" stroke="#FFFFFF" stroke-width="0.3" cx="555" cy="717" r="9"/>
<circle fill="#EB008B" stroke="#FFFFFF" stroke-width="0.3" cx="984" cy="717" r="9"/>
<circle fill="#EB008B" stroke="#FFFFFF" stroke-width="0.3" cx="1023" cy="717" r="9"/>
<circle fill="#EB008B" stroke="#FFFFFF" stroke-width="0.3" cx="1062" cy="717" r="9"/>
<circle fill="#EB008B" stroke="#FFFFFF" stroke-width="0.3" cx="1530" cy="717" r="9"/>
<circle fill="#EB008B" stroke="#FFFFFF" stroke-width="0.3" cx="1569" cy="717" r="9"/>
<circle fill="#EB008B" stroke="#FFFFFF" stroke-width="0.3" cx="1608" cy="717" r="9"/>
<circle fill="#EB008B" stroke="#FFFFFF" stroke-width="0.3" cx="1647" cy="717" r="9"/>
<circle fill="#EB008B" stroke="#FFFFFF" stroke-width="0.3" cx="1686" cy="717" r="9"/>
<circle fill="#EB008B" stroke="#FFFFFF" stroke-width="0.3" cx="1725" cy="717" r="9"/>
<circle fill="#EB008B" stroke="#FFFFFF" stroke-width="0.3" cx="1764" cy="717" r="9"/>
<circle fill="#EB008B" stroke="#FFFFFF" stroke-width="0.3" cx="477" cy="756" r="9"/>
<circle fill="#EB008B" stroke="#FFFFFF" stroke-width="0.3" cx="516" cy="756" r="9"/>
<circle fill="#EB008B" stroke="#FFFFFF" stroke-width="0.3" cx="555" cy="756" r="9"/>
<circle fill="#EB008B" stroke="#FFFFFF" stroke-width="0.3" cx="984" cy="756" r="9"/>
<circle fill="#EB008B" stroke="#FFFFFF" stroke-width="0.3" cx="1023" cy="756" r="9"/>
<circle fill="#EB008B" stroke="#FFFFFF" stroke-width="0.3" cx="1530" cy="756" r="9"/>
<circle fill="#EB008B" stroke="#FFFFFF" stroke-width="0.3" cx="1569" cy="756" r="9"/>
<circle fill="#EB008B" stroke="#FFFFFF" stroke-width="0.3" cx="1608" cy="756" r="9"/>
<circle fill="#EB008B" stroke="#FFFFFF" stroke-width="0.3" cx="1647" cy="756" r="9"/>
<circle fill="#EB008B" stroke="#FFFFFF" stroke-width="0.3" cx="1686" cy="756" r="9"/>
<circle fill="#EB008B" stroke="#FFFFFF" stroke-width="0.3" cx="1725" cy="756" r="9"/>
<circle fill="#EB008B" stroke="#FFFFFF" stroke-width="0.3" cx="477" cy="795" r="9"/>
<circle fill="#EB008B" stroke="#FFFFFF" stroke-width="0.3" cx="516" cy="795" r="9"/>
<circle fill="#EB008B" stroke="#FFFFFF" stroke-width="0.3" cx="1686" cy="795" r="9"/>
<circle fill="#EB008B" stroke="#FFFFFF" stroke-width="0.3" cx="1842" cy="795" r="9"/>
<circle fill="#EB008B" stroke="#FFFFFF" stroke-width="0.3" cx="477" cy="834" r="9"/>
<circle fill="#EB008B" stroke="#FFFFFF" stroke-width="0.3" cx="516" cy="834" r="9"/>
<circle fill="#EB008B" stroke="#FFFFFF" stroke-width="0.3" cx="1764" cy="834" r="9"/>
<circle fill="#EB008B" stroke="#FFFFFF" stroke-width="0.3" cx="1803" cy="834" r="9"/>
<circle fill="#EB008B" stroke="#FFFFFF" stroke-width="0.3" cx="516" cy="873" r="9"/>
<circle fill="#EB008B" stroke="#FFFFFF" stroke-width="0.3" cx="516" cy="912" r="9"/>
<circle fill="#EB008B" stroke="#FFFFFF" stroke-width="0.3" cx="555" cy="912" r="9"/>
</svg>
